<svg xmlns="http://www.w3.org/2000/svg" width="240" height="240" viewBox="0 0 120 120">
  <rect width="120" height="120" rx="28" fill="#fbf4e6"/>
  <g transform="rotate(-12 60 60)">
    <g fill="none" stroke="#2e1a0e" stroke-width="15" stroke-linecap="round" stroke-linejoin="round">
      <path d="M70 26c-9-9-30-8-34 4-3 10 9 14 18 17"/>
      <path d="M54 47c10 3 24 7 21 19-3 11-25 12-34 3"/>
      <path d="M78 58c-9-9-30-8-34 4-3 10 9 14 18 17"/>
      <path d="M62 79c10 3 24 7 21 19-4 11-26 11-35 2"/>
    </g>
  </g>
  <circle cx="94" cy="92" r="11" fill="#c68a4e" stroke="#2e1a0e" stroke-width="5"/>
  <circle cx="90" cy="89" r="1.6" fill="#2e1a0e"/>
  <circle cx="97" cy="92" r="1.6" fill="#2e1a0e"/>
  <circle cx="93" cy="95" r="1.4" fill="#2e1a0e"/>
</svg>
